<svg width="32" height="32" viewBox="0 0 32 32" fill="none" xmlns="http://www.w3.org/2000/svg">
<path d="M2.66663 13.3334L9.33329 5.33337M9.33329 5.33337L16.5522 12.5523C16.9376 12.9377 17.1303 13.1304 17.3753 13.2319C17.6204 13.3334 17.8929 13.3334 18.4379 13.3334H29.3333L24.2658 7.25239C23.4794 6.30873 23.0862 5.8369 22.5487 5.58514C22.0112 5.33337 21.397 5.33337 20.1686 5.33337H9.33329Z" stroke="white" stroke-width="1.5" stroke-linecap="round" stroke-linejoin="round"/>
<path d="M14.6667 10.6667V26.6667H4V11.8095" stroke="white" stroke-width="1.5" stroke-linecap="round" stroke-linejoin="round"/>
<path d="M14.6666 26.6667H28V12" stroke="white" stroke-width="1.5" stroke-linecap="round" stroke-linejoin="round"/>
<path d="M5.33325 10V5.33337" stroke="white" stroke-width="1.5" stroke-linecap="round" stroke-linejoin="round"/>
<path d="M9.34401 16L9.33203 16" stroke="white" stroke-width="2" stroke-linecap="round" stroke-linejoin="round"/>
<path d="M9.33325 26.6667V21.3334" stroke="white" stroke-width="1.5" stroke-linecap="round" stroke-linejoin="round"/>
<path d="M20 18.6667L22.6666 18.6667" stroke="white" stroke-width="1.5" stroke-linecap="round" stroke-linejoin="round"/>
</svg>
