<svg width="40" height="40" viewBox="0 0 40 40" fill="none" xmlns="http://www.w3.org/2000/svg">
<path d="M39.9999 24.8005C38.7118 24.7979 37.4236 24.797 36.1356 24.7924C35.3429 24.7895 34.5605 24.6912 33.8478 24.3715C32.2137 23.6385 31.1688 22.4691 30.8204 20.8186C30.5718 19.6404 30.8001 18.5266 31.4493 17.4975C31.6912 17.1141 32.0236 16.7665 32.3676 16.4503C33.4355 15.4684 34.7571 15.0613 36.261 15.0787C37.5071 15.093 38.7536 15.0816 39.9999 15.0816C39.9999 18.3213 39.9999 21.5608 39.9999 24.8005Z" fill="#002366"/>
<path d="M17.3916 0.00013249C17.3916 2.61192 17.3916 5.21 17.3916 7.82382C19.1291 7.82382 20.851 7.82382 22.5971 7.82382C22.5971 5.22384 22.5971 2.61979 22.5971 0.00257528C28.3947 0.00257528 34.1682 0.00257528 39.9576 0.00257528C39.9576 2.435 39.9576 4.86567 39.9576 7.31763C39.8499 7.31763 39.7576 7.31736 39.6655 7.31763C38.2299 7.32265 36.7936 7.30515 35.3589 7.34273C34.6712 7.36064 33.9743 7.432 33.3043 7.57039C32.472 7.74242 31.6533 7.98363 30.8478 8.24371C30.3412 8.40733 29.845 8.62454 29.3873 8.88164C28.6684 9.28539 27.9581 9.71112 27.2964 10.1877C26.741 10.5878 26.2135 11.038 25.7574 11.5303C25.1204 12.2179 24.5611 12.9653 23.9583 13.6998C23.5639 13.453 23.1141 13.1715 22.6642 12.8903C22.6361 12.8726 22.6067 12.8566 22.5779 12.8398C21.9348 12.4647 21.2671 12.1194 20.6581 11.7028C20.32 11.4713 20.0825 11.4587 19.7067 11.6228C19.1953 11.8463 18.6292 11.9645 18.0905 12.1376C17.3403 12.3785 16.5937 12.6286 15.8458 12.8749C15.2581 13.0684 14.6708 13.2626 14.083 13.4558C13.3497 13.6968 12.6162 13.9371 11.8827 14.1779C11.2465 14.3869 10.6101 14.5957 9.97409 14.8053C9.23479 15.0489 8.49594 15.2937 7.75679 15.5377C7.16017 15.7347 6.56355 15.9316 5.96664 16.128C5.24222 16.3664 4.51736 16.6036 3.79308 16.8421C3.14975 17.0539 2.50626 17.2656 1.86382 17.4796C1.34785 17.6513 0.833357 17.8272 0.317678 17.9996C0.224243 18.0308 0.127833 18.0547 0.0202637 18.0855C0.0202637 12.0425 0.0202637 6.02646 0.0202637 0C5.807 0.00013567 11.5815 0.00013249 17.3916 0.00013249Z" fill="#002366"/>
<path d="M22.612 32.0432C20.86 32.0432 19.1438 32.0432 17.4058 32.0432C17.4058 34.5118 17.4058 37.5194 17.4058 39.9995C11.6027 39.9995 5.82136 39.9995 0.00814016 39.9995C0.00814016 39.9266 0.00814016 39.3092 0.00814016 39.2343C0.00814016 36.2596 0.0102226 33.285 0.00293223 30.3103C0.00248589 30.1303 0.0606612 30.0526 0.246193 30.0017C0.677959 29.8831 1.10467 29.7489 1.53003 29.6122C2.2799 29.3711 3.02738 29.1235 3.77575 28.8783C4.41299 28.6695 5.05037 28.4609 5.6873 28.2513C6.36337 28.0288 7.03899 27.805 7.71476 27.5819C8.36613 27.3668 9.0175 27.1518 9.66901 26.9368C10.3458 26.7134 11.0223 26.4895 11.6997 26.2674C12.4002 26.0378 13.1022 25.812 13.8023 25.5813C14.4777 25.3588 15.1507 25.1307 15.8258 24.9077C16.4703 24.6947 17.1166 24.4859 17.7613 24.2731C18.3575 24.0763 18.9501 23.8705 19.5501 23.6842C19.6516 23.6527 19.807 23.6649 19.8957 23.7166C20.4818 24.0581 21.0587 24.4129 21.6342 24.7693C22.3331 25.2019 23.0285 25.6392 23.7234 26.0769C24.0528 26.2845 24.3166 26.5403 24.513 26.8676C24.6789 27.1441 24.8909 27.4017 25.1114 27.6459C25.6835 28.2792 26.2788 28.8908 26.9691 29.4263C27.5964 29.9128 28.2348 30.3784 28.9597 30.7378C29.4188 30.9655 29.8704 31.2125 30.3502 31.3972C31.0106 31.6513 31.6924 31.8602 32.369 32.0784C33.6149 32.48 34.9153 32.5382 36.2182 32.5538C37.3718 32.5676 38.5258 32.5566 39.6794 32.5566C39.7715 32.5566 39.8638 32.5566 39.9621 32.5566C39.9621 35.0055 39.9621 37.4321 39.9621 39.8717C34.1776 39.8717 28.4049 39.8717 22.6122 39.8717C22.612 37.2648 22.612 34.6671 22.612 32.0432Z" fill="#002366"/>
<path d="M39.8049 9.52876C39.8049 10.6434 39.8049 11.7296 39.8049 12.8311C39.67 12.8311 39.5514 12.8299 39.433 12.8312C37.9728 12.8483 36.5061 12.7969 35.0549 12.9105C34.2546 12.9732 33.4554 13.2579 32.7019 13.5438C32.0046 13.8083 31.3766 14.2217 30.8201 14.6991C29.4558 15.8696 28.6094 17.2903 28.3559 18.9931C28.1507 20.3703 28.3756 21.6902 29.0158 22.9452C29.3353 23.5713 29.7525 24.1448 30.2692 24.6596C30.8701 25.2586 31.5524 25.7455 32.3276 26.1502C32.8589 26.4276 33.425 26.583 33.9907 26.764C34.8256 27.031 35.6863 27.0481 36.5542 27.044C37.6305 27.039 38.7069 27.0428 39.8024 27.0428C39.8024 28.1369 39.8024 29.2213 39.8024 30.3193C39.7642 30.3252 39.7243 30.3372 39.6844 30.3369C38.2235 30.33 36.7617 30.3471 35.302 30.3061C34.0865 30.2719 32.9221 29.9631 31.79 29.5771C31.2934 29.4078 30.8006 29.1982 30.3586 28.9342C29.6598 28.5166 28.9511 28.0899 28.3463 27.5706C27.7095 27.0238 27.1349 26.3992 26.6307 25.7461C25.6061 24.419 25.0004 22.9262 24.7706 21.314C24.4941 19.3731 24.7834 17.5041 25.6587 15.7137C26.006 15.0035 26.4349 14.3389 26.9513 13.7178C27.6015 12.9361 28.3416 12.2457 29.2079 11.6573C30.0008 11.1188 30.848 10.6909 31.7539 10.3304C32.671 9.96549 33.633 9.821 34.6001 9.64924C35.6603 9.46106 36.7226 9.5582 37.7837 9.53161C38.4494 9.51506 39.1159 9.52876 39.8049 9.52876Z" fill="#FE0202"/>
<path d="M22.2415 21.201C22.1972 21.1777 22.1223 21.1448 22.0551 21.1021C21.5161 20.7595 20.976 20.4179 20.4418 20.0691C20.3115 19.984 20.2011 19.9682 20.0448 20.0208C19.2428 20.2905 18.4351 20.5456 17.6302 20.8077C16.9766 21.0206 16.3236 21.2348 15.6711 21.4506C14.9963 21.6739 14.3232 21.9015 13.6482 22.1241C12.9644 22.3496 12.2788 22.5706 11.5945 22.7949C10.9012 23.0221 10.2083 23.2507 9.51558 23.4793C8.88802 23.6865 8.26105 23.8947 7.63363 24.1022C6.94224 24.3306 6.2507 24.559 5.55886 24.7866C4.92207 24.9962 4.28469 25.2042 3.64805 25.414C2.90816 25.6576 2.16767 25.8997 1.42956 26.1475C0.964616 26.3037 0.50369 26.4696 0.00809682 26.6426C0.00809682 26.4459 0.00809682 26.2928 0.00809682 26.1398C0.00809682 24.7227 0.0171701 23.3056 6.01777e-05 21.8887C-0.00321303 21.617 0.127122 21.5092 0.371571 21.4361C0.873711 21.2861 1.3754 21.1343 1.87397 20.9744C2.57548 20.7496 3.27416 20.5174 3.97374 20.2878C4.63403 20.0711 5.29403 19.8539 5.95418 19.637C6.61507 19.4197 7.27596 19.2023 7.93685 18.985C8.64416 18.7523 9.35162 18.5196 10.0588 18.2867C10.7265 18.0666 11.394 17.846 12.0617 17.6261C12.7226 17.4085 13.3838 17.1917 14.0445 16.9738C14.6803 16.7642 15.3157 16.5535 15.9513 16.3433C16.6425 16.1147 17.3341 15.8872 18.0249 15.6575C18.5489 15.4833 19.0699 15.3014 19.5975 15.1364C19.6845 15.1091 19.8189 15.1216 19.8958 15.1664C20.7809 15.6811 21.6614 16.2028 22.5345 16.7341C22.5958 16.7714 22.622 16.9043 22.6101 16.9861C22.4939 17.7861 22.3309 18.5816 22.253 19.3842C22.1948 19.9845 22.2415 20.5927 22.2415 21.201Z" fill="#002366"/>
</svg>
