<svg width="32" height="36" viewBox="0 0 32 36" fill="none" xmlns="http://www.w3.org/2000/svg">
<path d="M0 11.8602H3.93817V0.0456543H7.87634L14.6106 11.8602H23.629V0.0456543H27.5672V11.8602H31.5054V15.7983H27.5672V19.7365H31.5054V23.6747H27.5672V35.4892H23.629L16.8751 23.6747H7.87634V35.4892H3.93817V23.6747H0V19.7365H3.93817V15.7983H0V11.8602ZM7.87634 11.8602H10.1014L7.87634 7.98107V11.8602ZM7.87634 15.7983V19.7365H14.6106L12.3659 15.7983H7.87634ZM23.629 27.6129V23.6747H21.3646L23.629 27.6129ZM16.8554 15.7983L19.1198 19.7365H23.629V15.7983H16.8554Z" fill="#002366"/>
</svg>
