<svg width="18" height="20" viewBox="0 0 18 20" fill="none" xmlns="http://www.w3.org/2000/svg">
<path d="M0 6.43029H2.14343V0H4.28686L7.95213 6.43029H12.8606V0H15.004V6.43029H17.1475V8.57373H15.004V10.7172H17.1475V12.8606H15.004V19.2909H12.8606L9.1846 12.8606H4.28686V19.2909H2.14343V12.8606H0V10.7172H2.14343V8.57373H0V6.43029ZM4.28686 6.43029H5.4979L4.28686 4.31901V6.43029ZM4.28686 8.57373V10.7172H7.95213L6.73037 8.57373H4.28686ZM12.8606 15.004V12.8606H11.6281L12.8606 15.004ZM9.17389 8.57373L10.4064 10.7172H12.8606V8.57373H9.17389Z" fill="white"/>
</svg>
