<svg width="54" height="54" viewBox="0 0 54 54" fill="none" xmlns="http://www.w3.org/2000/svg">
<circle cx="27.2701" cy="26.7567" r="25.7564" stroke="white" stroke-width="1.67333"/>
<path fill-rule="evenodd" clip-rule="evenodd" d="M16.8281 26.469C16.8281 31.8334 20.7242 36.2941 25.8197 37.1986V29.4056H23.1222V26.4088H25.8197V24.0107C25.8197 21.3132 27.5577 19.8153 30.016 19.8153C30.7947 19.8153 31.6345 19.9348 32.4132 20.0544V22.8121H31.0348C29.7157 22.8121 29.4163 23.4712 29.4163 24.311V26.4088H32.2936L31.8143 29.4056H29.4163V37.1986C34.5118 36.2941 38.4078 31.8343 38.4078 26.469C38.4078 20.5013 33.5524 15.6189 27.618 15.6189C21.6836 15.6189 16.8281 20.5013 16.8281 26.469Z" fill="white"/>
</svg>
