<svg width="54" height="54" viewBox="0 0 54 54" fill="none" xmlns="http://www.w3.org/2000/svg">
<circle cx="27.2701" cy="26.7567" r="25.7564" stroke="white" stroke-width="1.67333"/>
<path fill-rule="evenodd" clip-rule="evenodd" d="M17.3477 25.2593C17.3477 21.2875 17.3477 19.3011 18.5821 18.0678C19.8154 16.8334 21.8018 16.8334 25.7736 16.8334H27.8801C31.8518 16.8334 33.8382 16.8334 35.0716 18.0678C36.306 19.3011 36.306 21.2875 36.306 25.2593V27.3658C36.306 31.3376 36.306 33.324 35.0716 34.5573C33.8382 35.7917 31.8518 35.7917 27.8801 35.7917H25.7736C21.8018 35.7917 19.8154 35.7917 18.5821 34.5573C17.3477 33.324 17.3477 31.3376 17.3477 27.3658V25.2593ZM33.1463 21.573C33.1463 21.992 32.9798 22.3938 32.6835 22.6901C32.3873 22.9864 31.9854 23.1528 31.5664 23.1528C31.1474 23.1528 30.7456 22.9864 30.4493 22.6901C30.153 22.3938 29.9865 21.992 29.9865 21.573C29.9865 21.154 30.153 20.7521 30.4493 20.4558C30.7456 20.1595 31.1474 19.9931 31.5664 19.9931C31.9854 19.9931 32.3873 20.1595 32.6835 20.4558C32.9798 20.7521 33.1463 21.154 33.1463 21.573ZM28.9333 27.3658C28.9333 27.9245 28.7114 28.4602 28.3163 28.8553C27.9213 29.2503 27.3855 29.4723 26.8268 29.4723C26.2681 29.4723 25.7324 29.2503 25.3373 28.8553C24.9423 28.4602 24.7203 27.9245 24.7203 27.3658C24.7203 26.8071 24.9423 26.2713 25.3373 25.8763C25.7324 25.4812 26.2681 25.2593 26.8268 25.2593C27.3855 25.2593 27.9213 25.4812 28.3163 25.8763C28.7114 26.2713 28.9333 26.8071 28.9333 27.3658ZM31.0398 27.3658C31.0398 28.4831 30.5959 29.5547 29.8058 30.3448C29.0158 31.1349 27.9442 31.5787 26.8268 31.5787C25.7095 31.5787 24.6379 31.1349 23.8478 30.3448C23.0577 29.5547 22.6139 28.4831 22.6139 27.3658C22.6139 26.2484 23.0577 25.1768 23.8478 24.3868C24.6379 23.5967 25.7095 23.1528 26.8268 23.1528C27.9442 23.1528 29.0158 23.5967 29.8058 24.3868C30.5959 25.1768 31.0398 26.2484 31.0398 27.3658Z" fill="white"/>
</svg>
