<svg width="20" height="22" viewBox="0 0 20 22" fill="none" xmlns="http://www.w3.org/2000/svg">
<path d="M0 7.60717H2.36906V0.5H4.73811L8.7892 7.60717H14.2143V0.5H16.5834V7.60717H18.9524V9.97622H16.5834V12.3453H18.9524V14.7143H16.5834V21.8215H14.2143L10.1514 14.7143H4.73811V21.8215H2.36906V14.7143H0V12.3453H2.36906V9.97622H0V7.60717ZM4.73811 7.60717H6.07663L4.73811 5.27365V7.60717ZM4.73811 9.97622V12.3453H8.7892L7.43884 9.97622H4.73811ZM14.2143 17.0834V14.7143H12.8521L14.2143 17.0834ZM10.1396 9.97622L11.5018 12.3453H14.2143V9.97622H10.1396Z" fill="black"/>
</svg>
