<svg width="54" height="54" viewBox="0 0 54 54" fill="none" xmlns="http://www.w3.org/2000/svg">
<circle cx="26.7564" cy="26.7564" r="25.7564" stroke="white" stroke-width="1.67333"/>
<path d="M26 36C31.5228 36 36 31.5228 36 26C36 20.4772 31.5228 16 26 16C20.4772 16 16 20.4772 16 26C16 27.3789 16.2791 28.6926 16.7838 29.8877C17.0628 30.5481 17.2023 30.8784 17.2195 31.128C17.2368 31.3776 17.1633 31.6521 17.0164 32.2012L16 36L19.7988 34.9836C20.3479 34.8367 20.6224 34.7632 20.872 34.7805C21.1216 34.7977 21.4519 34.9372 22.1123 35.2162C23.3074 35.7209 24.6211 36 26 36Z" fill="white" stroke="white" stroke-width="1.5" stroke-linejoin="round"/>
<path d="M22.5882 26.3773L23.4591 25.2956C23.8262 24.8397 24.2799 24.4153 24.3155 23.8083C24.3244 23.6549 24.2166 22.9666 24.0008 21.5899C23.916 21.0488 23.4109 21 22.9733 21C22.4031 21 22.1181 21 21.835 21.1293C21.4771 21.2928 21.1098 21.7523 21.0292 22.1373C20.9654 22.442 21.0128 22.6519 21.1076 23.0717C21.5102 24.8548 22.4548 26.6158 23.9195 28.0805C25.3842 29.5452 27.1452 30.4898 28.9283 30.8924C29.3481 30.9872 29.558 31.0346 29.8627 30.9708C30.2477 30.8902 30.7072 30.5229 30.8707 30.165C31 29.8819 31 29.5969 31 29.0267C31 28.5891 30.9512 28.084 30.4101 27.9992C29.0334 27.7834 28.3451 27.6756 28.1917 27.6845C27.5847 27.7201 27.1603 28.1738 26.7044 28.5409L25.6227 29.4118" stroke="#002366" stroke-width="1.5"/>
</svg>
